<svg xmlns="http://www.w3.org/2000/svg" xmlns:xlink="http://www.w3.org/1999/xlink" viewBox="0 0 100 100"><defs><linearGradient id="a"><stop offset="0" stop-color="#fcfefd"/><stop offset="1" stop-color="#cee7dd"/></linearGradient><linearGradient id="b" x1="632.42" x2="1208.1" y1="-315.87" y2="375.05" gradientTransform="translate(1005.4 -222.19)" gradientUnits="userSpaceOnUse"><stop offset="0" stop-color="#fafafa"/><stop offset="1" stop-color="#b7b7b7"/></linearGradient><linearGradient id="c" x1="632.42" x2="1208.1" y1="-315.87" y2="375.05" gradientTransform="translate(1089.9 -220.62) scale(.90966)" gradientUnits="userSpaceOnUse"><stop offset="0" stop-color="#a8da93"/><stop offset="1" stop-color="#0da473"/></linearGradient><linearGradient id="d" x1="-4.125" x2="133.17" y1="-.136" y2="124.65" gradientUnits="userSpaceOnUse" xlink:href="#a"/></defs><g transform="translate(-165.22 72.725) scale(.1109)"><circle cx="1940.4" cy="-204.89" r="450.06" fill="url(#b)" stroke="#a3a3a3" stroke-linejoin="round" stroke-width="1.5" opacity=".96"/><circle cx="1940.4" cy="-204.89" r="409.41" fill="url(#c)" stroke="#a3a3a3" stroke-linejoin="round" stroke-width="1.5"/><g fill="none" stroke="url(#d)" stroke-linecap="round" stroke-width="5" transform="matrix(4.3567 0 0 4.306 1654.6 -463.71)"><path d="M103.97 29.437c2.11-10.752.93-18.913-4.064-22.156C98.242 6.2 96.246 5.728 94 5.813c-12.13.46-31.698 17.16-47.688 41.782-18.95 29.18-25.684 58.426-15.03 65.346 5.056 3.284 13.114.956 22.218-5.53"/><path d="M113.69 77.156c8.994-3.49 14.525-8.265 14.812-13.75.665-12.685-26.94-24.43-61.688-26.25-3.257-.17-6.46-.26-9.594-.25-30.287.102-53.93 8.41-54.53 19.906C2.4 62.286 7.39 67.594 15.94 72"/><path d="M57 10.53c-6.154-5.105-11.925-7.847-16.562-7.5-1.235.094-2.377.398-3.438.94-11.318 5.765-7.702 35.59 8.094 66.593s37.776 51.453 49.094 45.688c10.884-5.545 7.947-33.337-6.344-63.03"/></g><path fill="#e3f2ec" d="M1974.9-201.05a32.676 32.294 0 0 1-65.35 0 32.676 32.294 0 1 1 65.35 0z"/></g></svg>