<svg xmlns="http://www.w3.org/2000/svg" xmlns:xlink="http://www.w3.org/1999/xlink" version="1" viewBox="0 0 535.09 388"><defs><linearGradient id="a"><stop offset="0" stop-color="#f8f8f8"/><stop offset="1"/></linearGradient><linearGradient id="b"><stop offset="0" stop-color="#fefefe"/><stop offset="1" stop-color="#e2e2e2"/></linearGradient><linearGradient id="c" x1="291.93" x2="467.95" y1="304.81" y2="386.42" gradientUnits="userSpaceOnUse"><stop offset="0" stop-color="#8e8570"/><stop offset="1" stop-color="#464236"/></linearGradient><radialGradient id="d" cx="198.94" cy="367.6" r="40.8" gradientTransform="matrix(.51397 -.0528 .04738 .447 77.852 210.68)" gradientUnits="userSpaceOnUse" xlink:href="#a"/><radialGradient id="e" cx="273.83" cy="361.45" r="30.342" gradientTransform="matrix(1 0 0 1.04 0 -14.814)" gradientUnits="userSpaceOnUse" xlink:href="#b"/><radialGradient id="f" cx="277.04" cy="366.72" r="30.342" gradientTransform="matrix(.52647 -.54865 .52976 .5341 -63.086 323.07)" gradientUnits="userSpaceOnUse" xlink:href="#b"/><radialGradient id="g" cx="276.98" cy="364.93" r="14.245" gradientTransform="matrix(1 0 0 1.148 0 -54.61)" gradientUnits="userSpaceOnUse" xlink:href="#a"/><radialGradient id="h" cx="351.9" cy="375.93" r="16.531" gradientTransform="matrix(1 0 0 1.1277 0 -48.605)" gradientUnits="userSpaceOnUse" xlink:href="#a"/><linearGradient id="i" x1="352.05" x2="363.69" y1="438.84" y2="465.57" gradientUnits="userSpaceOnUse"><stop offset="0" stop-color="#423e32"/><stop offset="1" stop-color="#8e8872"/></linearGradient><linearGradient id="j" x1="483.97" x2="462.3" y1="322.18" y2="284.19" gradientUnits="userSpaceOnUse"><stop offset="0" stop-color="#464236"/><stop offset="1" stop-color="#7f7763"/></linearGradient><linearGradient id="k" x1="202.59" x2="188.04" y1="424.38" y2="371.45" gradientTransform="matrix(.96045 -.3702 .36847 .96497 -131.93 87.73)" gradientUnits="userSpaceOnUse"><stop offset="0" stop-color="gray"/><stop offset="1" stop-opacity="0"/></linearGradient><linearGradient id="l" x1="10.487" x2="67.898" y1="499.71" y2="510.26" gradientUnits="userSpaceOnUse"><stop offset="0" stop-color="#56422a"/><stop offset="1" stop-color="#ba9a71"/></linearGradient><linearGradient id="m" x1="116.65" x2="114.99" y1="512.25" y2="530.54" gradientUnits="userSpaceOnUse"><stop offset="0" stop-color="#e1e0e0"/><stop offset="1" stop-color="#828282"/></linearGradient><linearGradient id="n" x1="155.11" x2="203.65" y1="519.85" y2="533.92" gradientUnits="userSpaceOnUse"><stop offset="0"/><stop offset="1" stop-color="#828282"/></linearGradient></defs><g color="#000"><path fill="url(#c)" d="M237.24 223.52c120.73 166.66 273.05 97.79 309.34-13.72 9.97 119.17-4.95 112.37-48.36 156.43-4.05 30.97-5.53 30.09-26.47 75.05-61.36 103.56-281.14 28.74-300.81-28.35l21.81-51c37.28-1.18 69.64-5.51 107.62-8.8-40.74-46.72-48.42-75.85-63.13-129.61z" transform="translate(-130.87 -195.87)"/><path fill="url(#d)" d="M238.56 392.37c4.33 28.88-11.34 51.87-41.21 53.39-22.88 1.18-39.68-23.6-39.68-52.98 0-29.37 16.68-53.46 39.68-53.46 22.99 0 37.33 27.23 41.21 53.05z" transform="matrix(.96045 -.3702 .36847 .96497 -262.98 -108.315)"/><path fill="url(#e)" d="M304.17 361.45c0 17.444-13.585 31.586-30.342 31.586-16.758 0-30.342-14.14-30.342-31.586 0-17.444 13.585-31.586 30.342-31.586 16.758 0 30.342 14.14 30.342 31.586z" transform="matrix(1.0656 0 0 1.055 -149.82 -217.036)"/><path fill="url(#f)" d="M304.17 361.45c0 17.444-13.585 31.586-30.342 31.586-16.758 0-30.342-14.14-30.342-31.586 0-17.444 13.585-31.586 30.342-31.586 16.758 0 30.342 14.14 30.342 31.586z" transform="matrix(1.3156 0 0 1.2835 -144.287 -289.376)"/><path fill="url(#g)" d="M295.45 368.61c0 9.033-6.378 16.355-14.245 16.355-7.867 0-14.245-7.322-14.245-16.355 0-9.033 6.378-16.355 14.245-16.355 7.867 0 14.245 7.322 14.245 16.355z" transform="translate(-130.87 -195.87)"/><path fill="url(#h)" d="M373.88 380.74c0 10.295-7.4 18.64-16.53 18.64s-16.532-8.345-16.532-18.64 7.4-18.64 16.53-18.64 16.532 8.345 16.532 18.64z" transform="matrix(1.032 0 0 1.0377 -142.802 -210.94)"/><path fill="url(#i)" d="M235.28 465.91c86.55-2.65 124.35-4.31 170.61-55.21.33 43.27-19.72 69.93-42.28 73.61-39.77 6.5-82.24-.66-128.33-18.4z" transform="translate(-130.87 -195.87)"/><path fill="url(#j)" d="M386.46 323c42.64-.97 108.41-2.19 160.12-113.2-17.89 112.7-65.92 124.14-88.15 127.58-22.72 3.52-57.25-6.88-71.97-14.38z" transform="translate(-130.87 -195.87)"/><path fill="url(#k)" d="M241.76 378.04c14.81 26.26 8.23 54.25-19.9 66.78-21.54 9.6-46.81-8.08-57.63-36.43-10.83-28.35 64.3-53.82 77.53-30.35z" transform="translate(-130.87 -195.87)"/><path fill="url(#l)" d="M-6.422 503.22l96.127 4.04-6.466 26.86-101.51-23.6c4.945-2.31 8.023-4.62 11.848-7.3z" transform="translate(250.4 -260.587)"/><path fill="url(#m)" d="M140.32 513.98l-50.615-6.72-6.466 26.86 55.59-.24 1.49-19.9z" transform="translate(250.4 -260.587)"/><path fill="url(#n)" d="M152.63 505.52c-10.84.33-17.15 12.12-17.41 20.65-.26 8.28 21.96 39.75 90.4 9.2-25.99-8.79-61.16-30.43-72.99-29.85z" transform="translate(250.4 -260.587)"/></g></svg>