<svg xmlns="http://www.w3.org/2000/svg" xmlns:xlink="http://www.w3.org/1999/xlink" width="256" height="256" preserveAspectRatio="xMidYMid" viewBox="0 0 256 256"><defs><path id="a" d="M253.333 128h-58.666V61.333L132.56.8a2.575 2.575 0 0 0-1.893-.8A2.675 2.675 0 0 0 128 2.667v58.666H61.333L.8 123.44c-.507.48-.8 1.147-.8 1.893C0 126.8 1.2 128 2.667 128h58.666v66.667L123.44 255.2c.48.507 1.147.8 1.893.8 1.467 0 2.667-1.2 2.667-2.667v-58.666h66.667L255.2 132.56c.507-.48.8-1.147.8-1.893 0-1.467-1.2-2.667-2.667-2.667z"/><linearGradient id="c" x1="56.867%" x2="46.904%" y1="47.539%" y2="57.776%"><stop offset="0%" stop-color="#E88C22"/><stop offset="100%" stop-color="#FCBB29" stop-opacity="0"/></linearGradient><linearGradient id="d" x1="50%" x2="58.293%" y1="40.547%" y2="48.587%"><stop offset="0%" stop-color="#5E8235"/><stop offset="100%" stop-color="#8CC251" stop-opacity="0"/></linearGradient></defs><mask id="b" fill="#fff"><use xlink:href="#a"/></mask><use xlink:href="#a"/><g mask="url(#b)"><path fill="#FCBB29" d="M.8 123.44c-.507.48-.8 1.147-.8 1.893C0 126.8 1.2 128 2.667 128H128V61.333H61.333L.8 123.44z"/><path fill="#FC9723" d="M128 128V61.333H61.333L128 128z"/><path fill="#FFF" fill-opacity=".2" d="M61.333 61.333L.8 123.44c-.507.48-.8 1.147-.8 1.893 0 .24.08.454.133.667.134-.453.32-.907.64-1.227l60.56-62.106H128v-1.334H61.333z"/><path fill="#3E2723" fill-opacity=".1" d="M128 128v-1.333L62.667 61.333h-1.334L128 128z"/><path fill="url(#c)" d="M119.967 59.643l-9.615 4.106L56.129 6.424 61.414.889l58.553 58.754z" opacity=".8" transform="translate(0 60.333)"/></g><g mask="url(#b)"><path fill="#8CC251" d="M123.44 255.2c.48.507 1.147.8 1.893.8 1.467 0 2.667-1.2 2.667-2.667V128H61.333v66.667L123.44 255.2z"/><path fill="#1D9A59" d="M61.333 128v66.667L128 128H61.333z"/><path fill="#3E2723" fill-opacity=".1" d="M125.333 254.667a2.575 2.575 0 0 1-1.893-.8L62 194l-.667.667L123.44 255.2c.48.507 1.147.8 1.893.8 1.467 0 2.667-1.2 2.667-2.667V252c0 1.467-1.2 2.667-2.667 2.667z"/><path fill="url(#d)" d="M59.068 8.974l2.229 5.19L5.969 72.488.706 67.354l58.362-58.38z" opacity=".7" transform="translate(61.333 128)"/><path d="M128 129.333h-1.333l-65.334 65.334V196L128 129.333z" opacity=".2"/></g><g mask="url(#b)"><path fill="#4B87F1" d="M255.2 132.56c.507-.48.8-1.147.8-1.893 0-1.467-1.2-2.667-2.667-2.667H128v66.667h66.667L255.2 132.56z"/><path fill="#3367D6" d="M128 128v66.667h66.667L128 128z"/><path fill="#263238" fill-opacity=".2" d="M194.667 194.667L255.2 132.56c.507-.48.8-1.147.8-1.893 0-.24-.08-.454-.133-.667-.134.453-.32.907-.64 1.227l-60.56 62.106H128v1.334h66.667z"/><path fill="#263238" fill-opacity=".1" d="M128 128v1.333l65.333 65.334h1.334L128 128z"/><path fill="#FFF" fill-opacity=".2" d="M255.867 131.333c.053-.213.133-.426.133-.666 0-1.467-1.2-2.667-2.667-2.667H128v1.333h125.333c1.227 0 2.24.854 2.534 2z"/></g><g mask="url(#b)"><path fill="#D8443C" d="M132.56.8a2.575 2.575 0 0 0-1.893-.8A2.675 2.675 0 0 0 128 2.667V128h66.667V61.333L132.56.8z"/><path fill="#FFF" fill-opacity=".2" d="M132.56.8a2.575 2.575 0 0 0-1.893-.8A2.675 2.675 0 0 0 128 2.667V4c0-1.467 1.2-2.667 2.667-2.667.746 0 1.413.294 1.893.8l60.747 59.227 1.36-.027L132.56.8z"/><path fill="#AB1657" d="M194.667 128V61.333L175.45 80.55 128 128h66.667z"/><path fill="#FFF" d="M128 126.667h1.333l65.334-65.334-1.36.027L128 126.667z" opacity=".2"/><path fill="#3E2723" fill-opacity=".1" d="M128 126.667h66.667V128H128z"/></g><path fill="#F1F1F1" d="M120 120l8-18.667L136 120l18.667 8L136 136l-8 18.667L120 136l-18.667-8L120 120z" mask="url(#b)"/></svg>