<svg xmlns="http://www.w3.org/2000/svg" width="256" height="256" preserveAspectRatio="xMidYMid" viewBox="0 0 256 256"><defs><filter id="a" width="200%" height="200%" x="-50%" y="-50%" filterUnits="objectBoundingBox"><feOffset dy="16" in="SourceAlpha" result="shadowOffsetOuter1"/><feGaussianBlur in="shadowOffsetOuter1" result="shadowBlurOuter1" stdDeviation="9"/><feColorMatrix in="shadowBlurOuter1" result="shadowMatrixOuter1" values="0 0 0 0 0 0 0 0 0 0 0 0 0 0 0 0 0 0 0.214965466 0"/><feMerge><feMergeNode in="shadowMatrixOuter1"/><feMergeNode in="SourceGraphic"/></feMerge></filter></defs><path fill="#FF9C0B" d="M127.979 155.387L256 27.93v-7.323C256 9.227 246.773 0 235.392 0H20.608C9.227 0 0 9.227 0 20.608v150.304l71.067-70.656 56.912 55.13"/><path fill="#FB5722" d="M71.088 157.83L0 228.767v6.624C0 246.773 9.227 256 20.608 256h214.784c11.381 0 20.608-9.227 20.608-20.608V86.597L127.979 214.053 71.088 157.83"/><path fill="#F2F2F2" d="M0 170.912l71.067-70.656 56.912 55.13L256 27.932l-.021 58.682-128 127.44-56.891-56.224L0 228.768v-57.856" filter="url(#a)"/><path fill="#FF9B07" d="M99.552 185.968l.005-58.117-28.469 29.978 28.464 28.139"/></svg>